<mxfile host="Electron" modified="2025-01-24T10:49:26.359Z" agent="Mozilla/5.0 (Windows NT 10.0; Win64; x64) AppleWebKit/537.36 (KHTML, like Gecko) draw.io/23.1.5 Chrome/120.0.6099.109 Electron/28.1.0 Safari/537.36" etag="5dSLoGhH6INQDON0Ul0T" version="23.1.5" type="device">
  <diagram name="Страница — 1" id="zIZ-QArtpeOY1QGKHK9S">
    <mxGraphModel dx="1615" dy="968" grid="1" gridSize="10" guides="1" tooltips="1" connect="1" arrows="1" fold="1" page="1" pageScale="1" pageWidth="1169" pageHeight="827" math="0" shadow="0">
      <root>
        <mxCell id="0" />
        <mxCell id="1" parent="0" />
        <mxCell id="R01BjYmxYILiS5MC3WKc-1" value="" style="shape=umlLifeline;perimeter=lifelinePerimeter;whiteSpace=wrap;html=1;container=1;dropTarget=0;collapsible=0;recursiveResize=0;outlineConnect=0;portConstraint=eastwest;newEdgeStyle={&quot;curved&quot;:0,&quot;rounded&quot;:0};participant=umlActor;" vertex="1" parent="1">
          <mxGeometry x="890" y="40" width="20" height="700" as="geometry" />
        </mxCell>
        <mxCell id="R01BjYmxYILiS5MC3WKc-2" value="" style="html=1;points=[[0,0,0,0,5],[0,1,0,0,-5],[1,0,0,0,5],[1,1,0,0,-5]];perimeter=orthogonalPerimeter;outlineConnect=0;targetShapes=umlLifeline;portConstraint=eastwest;newEdgeStyle={&quot;curved&quot;:0,&quot;rounded&quot;:0};" vertex="1" parent="R01BjYmxYILiS5MC3WKc-1">
          <mxGeometry x="5" y="50" width="10" height="370" as="geometry" />
        </mxCell>
        <mxCell id="R01BjYmxYILiS5MC3WKc-3" value="показать" style="html=1;verticalAlign=bottom;startArrow=oval;startFill=1;endArrow=block;startSize=8;curved=0;rounded=0;entryX=0.13;entryY=0.109;entryDx=0;entryDy=0;entryPerimeter=0;" edge="1" parent="1">
          <mxGeometry width="60" relative="1" as="geometry">
            <mxPoint x="905" y="109.99999999999991" as="sourcePoint" />
            <mxPoint x="1020.3" y="109.99999999999991" as="targetPoint" />
          </mxGeometry>
        </mxCell>
        <mxCell id="R01BjYmxYILiS5MC3WKc-4" value="AlbumsView (index.html.erb)" style="shape=umlLifeline;perimeter=lifelinePerimeter;whiteSpace=wrap;html=1;container=1;dropTarget=0;collapsible=0;recursiveResize=0;outlineConnect=0;portConstraint=eastwest;newEdgeStyle={&quot;curved&quot;:0,&quot;rounded&quot;:0};" vertex="1" parent="1">
          <mxGeometry x="974" y="40" width="100" height="680" as="geometry" />
        </mxCell>
        <mxCell id="R01BjYmxYILiS5MC3WKc-5" value="" style="html=1;points=[[0,0,0,0,5],[0,1,0,0,-5],[1,0,0,0,5],[1,1,0,0,-5]];perimeter=orthogonalPerimeter;outlineConnect=0;targetShapes=umlLifeline;portConstraint=eastwest;newEdgeStyle={&quot;curved&quot;:0,&quot;rounded&quot;:0};" vertex="1" parent="R01BjYmxYILiS5MC3WKc-4">
          <mxGeometry x="45" y="60" width="10" height="90" as="geometry" />
        </mxCell>
        <mxCell id="R01BjYmxYILiS5MC3WKc-6" value="GET /artists/:artist_id/albums/:id" style="html=1;verticalAlign=bottom;endArrow=open;curved=0;rounded=0;endFill=0;entryX=0.033;entryY=0.049;entryDx=0;entryDy=0;entryPerimeter=0;" edge="1" parent="1" source="R01BjYmxYILiS5MC3WKc-5" target="R01BjYmxYILiS5MC3WKc-8">
          <mxGeometry relative="1" as="geometry">
            <mxPoint x="1028.9999999999998" y="120" as="sourcePoint" />
            <mxPoint x="1283.43" y="125.44000000000005" as="targetPoint" />
          </mxGeometry>
        </mxCell>
        <mxCell id="R01BjYmxYILiS5MC3WKc-7" value="AlbumsController" style="shape=umlLifeline;perimeter=lifelinePerimeter;whiteSpace=wrap;html=1;container=1;dropTarget=0;collapsible=0;recursiveResize=0;outlineConnect=0;portConstraint=eastwest;newEdgeStyle={&quot;curved&quot;:0,&quot;rounded&quot;:0};" vertex="1" parent="1">
          <mxGeometry x="1169" y="40" width="100" height="680" as="geometry" />
        </mxCell>
        <mxCell id="R01BjYmxYILiS5MC3WKc-8" value="" style="html=1;points=[[0,0,0,0,5],[0,1,0,0,-5],[1,0,0,0,5],[1,1,0,0,-5]];perimeter=orthogonalPerimeter;outlineConnect=0;targetShapes=umlLifeline;portConstraint=eastwest;newEdgeStyle={&quot;curved&quot;:0,&quot;rounded&quot;:0};" vertex="1" parent="R01BjYmxYILiS5MC3WKc-7">
          <mxGeometry x="45" y="70" width="10" height="310" as="geometry" />
        </mxCell>
        <mxCell id="R01BjYmxYILiS5MC3WKc-9" value="Artist" style="shape=umlLifeline;perimeter=lifelinePerimeter;whiteSpace=wrap;html=1;container=1;dropTarget=0;collapsible=0;recursiveResize=0;outlineConnect=0;portConstraint=eastwest;newEdgeStyle={&quot;curved&quot;:0,&quot;rounded&quot;:0};" vertex="1" parent="1">
          <mxGeometry x="1339" y="40" width="100" height="680" as="geometry" />
        </mxCell>
        <mxCell id="R01BjYmxYILiS5MC3WKc-10" value="" style="html=1;points=[[0,0,0,0,5],[0,1,0,0,-5],[1,0,0,0,5],[1,1,0,0,-5]];perimeter=orthogonalPerimeter;outlineConnect=0;targetShapes=umlLifeline;portConstraint=eastwest;newEdgeStyle={&quot;curved&quot;:0,&quot;rounded&quot;:0};" vertex="1" parent="R01BjYmxYILiS5MC3WKc-9">
          <mxGeometry x="45" y="90" width="10" height="80" as="geometry" />
        </mxCell>
        <mxCell id="R01BjYmxYILiS5MC3WKc-12" value="AlbumsView (show.html.erb)" style="shape=umlLifeline;perimeter=lifelinePerimeter;whiteSpace=wrap;html=1;container=1;dropTarget=0;collapsible=0;recursiveResize=0;outlineConnect=0;portConstraint=eastwest;newEdgeStyle={&quot;curved&quot;:0,&quot;rounded&quot;:0};" vertex="1" parent="1">
          <mxGeometry x="1659" y="40" width="100" height="680" as="geometry" />
        </mxCell>
        <mxCell id="R01BjYmxYILiS5MC3WKc-13" value="" style="html=1;points=[[0,0,0,0,5],[0,1,0,0,-5],[1,0,0,0,5],[1,1,0,0,-5]];perimeter=orthogonalPerimeter;outlineConnect=0;targetShapes=umlLifeline;portConstraint=eastwest;newEdgeStyle={&quot;curved&quot;:0,&quot;rounded&quot;:0};" vertex="1" parent="R01BjYmxYILiS5MC3WKc-12">
          <mxGeometry x="45" y="300" width="10" height="130" as="geometry" />
        </mxCell>
        <mxCell id="R01BjYmxYILiS5MC3WKc-14" value="find(:artist_id)" style="html=1;verticalAlign=bottom;endArrow=open;curved=0;rounded=0;endFill=0;" edge="1" parent="1" target="R01BjYmxYILiS5MC3WKc-10">
          <mxGeometry relative="1" as="geometry">
            <mxPoint x="1224" y="150" as="sourcePoint" />
            <mxPoint x="1444" y="150" as="targetPoint" />
          </mxGeometry>
        </mxCell>
        <mxCell id="R01BjYmxYILiS5MC3WKc-15" value="Данные артиста" style="html=1;verticalAlign=bottom;endArrow=open;dashed=1;endSize=8;curved=0;rounded=0;" edge="1" parent="1">
          <mxGeometry relative="1" as="geometry">
            <mxPoint x="1379" y="190" as="sourcePoint" />
            <mxPoint x="1224" y="190" as="targetPoint" />
          </mxGeometry>
        </mxCell>
        <mxCell id="R01BjYmxYILiS5MC3WKc-17" value="Database" style="shape=umlLifeline;perimeter=lifelinePerimeter;whiteSpace=wrap;html=1;container=1;dropTarget=0;collapsible=0;recursiveResize=0;outlineConnect=0;portConstraint=eastwest;newEdgeStyle={&quot;curved&quot;:0,&quot;rounded&quot;:0};" vertex="1" parent="1">
          <mxGeometry x="1789" y="40" width="100" height="680" as="geometry" />
        </mxCell>
        <mxCell id="R01BjYmxYILiS5MC3WKc-18" value="" style="html=1;points=[[0,0,0,0,5],[0,1,0,0,-5],[1,0,0,0,5],[1,1,0,0,-5]];perimeter=orthogonalPerimeter;outlineConnect=0;targetShapes=umlLifeline;portConstraint=eastwest;newEdgeStyle={&quot;curved&quot;:0,&quot;rounded&quot;:0};" vertex="1" parent="R01BjYmxYILiS5MC3WKc-17">
          <mxGeometry x="45" y="80" width="10" height="90" as="geometry" />
        </mxCell>
        <mxCell id="R01BjYmxYILiS5MC3WKc-28" value="" style="html=1;points=[[0,0,0,0,5],[0,1,0,0,-5],[1,0,0,0,5],[1,1,0,0,-5]];perimeter=orthogonalPerimeter;outlineConnect=0;targetShapes=umlLifeline;portConstraint=eastwest;newEdgeStyle={&quot;curved&quot;:0,&quot;rounded&quot;:0};" vertex="1" parent="R01BjYmxYILiS5MC3WKc-17">
          <mxGeometry x="45" y="210" width="10" height="60" as="geometry" />
        </mxCell>
        <mxCell id="R01BjYmxYILiS5MC3WKc-19" value="SELECT * FROM artists WHERE id = {artist_id}" style="html=1;verticalAlign=bottom;endArrow=open;curved=0;rounded=0;endFill=0;entryX=-0.054;entryY=0.435;entryDx=0;entryDy=0;entryPerimeter=0;" edge="1" parent="1" source="R01BjYmxYILiS5MC3WKc-10" target="R01BjYmxYILiS5MC3WKc-18">
          <mxGeometry relative="1" as="geometry">
            <mxPoint x="1459" y="160" as="sourcePoint" />
            <mxPoint x="1839" y="160" as="targetPoint" />
          </mxGeometry>
        </mxCell>
        <mxCell id="R01BjYmxYILiS5MC3WKc-20" value="Выбранная запись" style="html=1;verticalAlign=bottom;endArrow=open;dashed=1;endSize=8;curved=0;rounded=0;exitX=0.141;exitY=0.679;exitDx=0;exitDy=0;exitPerimeter=0;" edge="1" parent="1" target="R01BjYmxYILiS5MC3WKc-10" source="R01BjYmxYILiS5MC3WKc-18">
          <mxGeometry relative="1" as="geometry">
            <mxPoint x="1844" y="180" as="sourcePoint" />
            <mxPoint x="1464" y="180" as="targetPoint" />
          </mxGeometry>
        </mxCell>
        <mxCell id="R01BjYmxYILiS5MC3WKc-21" value="Album" style="shape=umlLifeline;perimeter=lifelinePerimeter;whiteSpace=wrap;html=1;container=1;dropTarget=0;collapsible=0;recursiveResize=0;outlineConnect=0;portConstraint=eastwest;newEdgeStyle={&quot;curved&quot;:0,&quot;rounded&quot;:0};" vertex="1" parent="1">
          <mxGeometry x="1489" y="40" width="120" height="680" as="geometry" />
        </mxCell>
        <mxCell id="R01BjYmxYILiS5MC3WKc-22" value="" style="html=1;points=[[0,0,0,0,5],[0,1,0,0,-5],[1,0,0,0,5],[1,1,0,0,-5]];perimeter=orthogonalPerimeter;outlineConnect=0;targetShapes=umlLifeline;portConstraint=eastwest;newEdgeStyle={&quot;curved&quot;:0,&quot;rounded&quot;:0};" vertex="1" parent="R01BjYmxYILiS5MC3WKc-21">
          <mxGeometry x="55" y="200" width="10" height="70" as="geometry" />
        </mxCell>
        <mxCell id="R01BjYmxYILiS5MC3WKc-16" value="Рендер show.html" style="html=1;verticalAlign=bottom;endArrow=open;curved=0;rounded=0;endFill=0;exitX=0.94;exitY=0.927;exitDx=0;exitDy=0;exitPerimeter=0;" edge="1" parent="R01BjYmxYILiS5MC3WKc-21" target="R01BjYmxYILiS5MC3WKc-13">
          <mxGeometry relative="1" as="geometry">
            <mxPoint x="-265.5999999999999" y="347.31999999999994" as="sourcePoint" />
            <mxPoint x="-40" y="309" as="targetPoint" />
          </mxGeometry>
        </mxCell>
        <mxCell id="R01BjYmxYILiS5MC3WKc-23" value="find(:id)" style="html=1;verticalAlign=bottom;endArrow=open;curved=0;rounded=0;endFill=0;entryX=0.038;entryY=0.153;entryDx=0;entryDy=0;entryPerimeter=0;" edge="1" parent="1" source="R01BjYmxYILiS5MC3WKc-8" target="R01BjYmxYILiS5MC3WKc-22">
          <mxGeometry relative="1" as="geometry">
            <mxPoint x="1229" y="250" as="sourcePoint" />
            <mxPoint x="1539" y="250" as="targetPoint" />
          </mxGeometry>
        </mxCell>
        <mxCell id="R01BjYmxYILiS5MC3WKc-24" value="Данные альбома" style="html=1;verticalAlign=bottom;endArrow=open;dashed=1;endSize=8;curved=0;rounded=0;exitX=0.078;exitY=0.68;exitDx=0;exitDy=0;exitPerimeter=0;" edge="1" parent="1">
          <mxGeometry relative="1" as="geometry">
            <mxPoint x="1544.7800000000002" y="290" as="sourcePoint" />
            <mxPoint x="1224" y="290" as="targetPoint" />
          </mxGeometry>
        </mxCell>
        <mxCell id="R01BjYmxYILiS5MC3WKc-26" value="SELECT * FROM albums WHERE id = {id}" style="html=1;verticalAlign=bottom;endArrow=open;curved=0;rounded=0;endFill=0;exitX=0.97;exitY=0.281;exitDx=0;exitDy=0;exitPerimeter=0;" edge="1" parent="1" source="R01BjYmxYILiS5MC3WKc-22" target="R01BjYmxYILiS5MC3WKc-28">
          <mxGeometry relative="1" as="geometry">
            <mxPoint x="1560" y="260" as="sourcePoint" />
            <mxPoint x="1998" y="230" as="targetPoint" />
          </mxGeometry>
        </mxCell>
        <mxCell id="R01BjYmxYILiS5MC3WKc-27" value="Выбранная запись" style="html=1;verticalAlign=bottom;endArrow=open;dashed=1;endSize=8;curved=0;rounded=0;exitX=-0.02;exitY=0.664;exitDx=0;exitDy=0;exitPerimeter=0;" edge="1" parent="1" target="R01BjYmxYILiS5MC3WKc-22">
          <mxGeometry relative="1" as="geometry">
            <mxPoint x="1829.7999999999997" y="279.99999999999994" as="sourcePoint" />
            <mxPoint x="1560" y="280" as="targetPoint" />
          </mxGeometry>
        </mxCell>
        <mxCell id="R01BjYmxYILiS5MC3WKc-11" value="show.html" style="html=1;verticalAlign=bottom;endArrow=open;dashed=1;endSize=8;curved=0;rounded=0;exitX=-0.141;exitY=0.724;exitDx=0;exitDy=0;exitPerimeter=0;" edge="1" parent="1" source="R01BjYmxYILiS5MC3WKc-13" target="R01BjYmxYILiS5MC3WKc-2">
          <mxGeometry relative="1" as="geometry">
            <mxPoint x="1403.85" y="518.47" as="sourcePoint" />
            <mxPoint x="900" y="443" as="targetPoint" />
          </mxGeometry>
        </mxCell>
      </root>
    </mxGraphModel>
  </diagram>
</mxfile>
